HIERARCHY
ROOT Hips
{
	OFFSET 48.993099 10.217591 55.507801
	CHANNELS 6 Xposition Yposition Zposition Xrotation Yrotation Zrotation
	JOINT spine
	{
		OFFSET 0.000000 -0.342408 5.954380
		CHANNELS 3 Xrotation Yrotation Zrotation
		JOINT spine1
		{
			OFFSET 0.000000 -0.000002 8.856018
			CHANNELS 3 Xrotation Yrotation Zrotation
			JOINT spine2
			{
				OFFSET 0.000000 -0.000001 8.485672
				CHANNELS 3 Xrotation Yrotation Zrotation
				JOINT Neck
				{
					OFFSET 0.000000 -1.038704 21.786301
					CHANNELS 3 Xrotation Yrotation Zrotation
					JOINT Head
					{
						OFFSET 0.000000 -0.000001 6.582199
						CHANNELS 3 Xrotation Yrotation Zrotation
						End Site
						{
							OFFSET 0.000000 5.254357 15.932602
						}
					}
				}
				JOINT RightShoulder
				{
					OFFSET -3.573071 0.497523 9.163857
					CHANNELS 3 Xrotation Yrotation Zrotation
					JOINT RightArm
					{
						OFFSET 0.000000 -0.000002 12.019203
						CHANNELS 3 Xrotation Yrotation Zrotation
						JOINT RightArmRoll
						{
							OFFSET 0.000000 -0.000001 6.067551
							CHANNELS 3 Xrotation Yrotation Zrotation
							JOINT RightForeArm
							{
								OFFSET 0.000000 -0.000003 17.672600
								CHANNELS 3 Xrotation Yrotation Zrotation
								JOINT RightForeArmRoll
								{
									OFFSET 0.000000 -0.000001 6.808716
									CHANNELS 3 Xrotation Yrotation Zrotation
									JOINT RightHand
									{
										OFFSET 0.000000 -0.000003 13.663605
										CHANNELS 3 Xrotation Yrotation Zrotation
										End Site
										{
											OFFSET 0.000000 0.000000 0.100006
										}
									}
								}
							}
						}
					}
				}
				JOINT LeftShoulder
				{
					OFFSET 3.573071 0.497523 9.163857
					CHANNELS 3 Xrotation Yrotation Zrotation
					JOINT LeftArm
					{
						OFFSET 0.000000 -0.000002 12.019203
						CHANNELS 3 Xrotation Yrotation Zrotation
						JOINT LeftArmRoll
						{
							OFFSET 0.000000 -0.000001 6.067543
							CHANNELS 3 Xrotation Yrotation Zrotation
							JOINT LeftForeArm
							{
								OFFSET 0.000000 -0.000003 17.672600
								CHANNELS 3 Xrotation Yrotation Zrotation
								JOINT LeftForeArmRoll
								{
									OFFSET 0.000000 -0.000001 6.808723
									CHANNELS 3 Xrotation Yrotation Zrotation
									JOINT LeftHand
									{
										OFFSET 0.000000 -0.000003 13.663605
										CHANNELS 3 Xrotation Yrotation Zrotation
										End Site
										{
											OFFSET 0.000000 0.000000 0.100006
										}
									}
								}
							}
						}
					}
				}
			}
		}
	}
	JOINT RightUpLeg
	{
		OFFSET -5.277740 0.811858 -0.967796
		CHANNELS 3 Xrotation Yrotation Zrotation
		JOINT RightUpLegRoll
		{
			OFFSET 0.000000 -0.000003 16.021397
			CHANNELS 3 Xrotation Yrotation Zrotation
			JOINT RightLeg
			{
				OFFSET 0.000000 0.000003 -19.840099
				CHANNELS 3 Xrotation Yrotation Zrotation
				JOINT RightLegRoll
				{
					OFFSET 0.000000 -0.000003 19.905003
					CHANNELS 3 Xrotation Yrotation Zrotation
					JOINT RightFoot
					{
						OFFSET 0.000000 -0.000003 16.567497
						CHANNELS 3 Xrotation Yrotation Zrotation
						JOINT RightToeBase
						{
							OFFSET 0.000000 -0.000002 13.849602
							CHANNELS 3 Xrotation Yrotation Zrotation
							End Site
							{
								OFFSET 0.005871 0.773116 6.707283
							}
						}
					}
				}
			}
		}
	}
	JOINT LeftUpLeg
	{
		OFFSET 5.277740 0.811858 -0.967796
		CHANNELS 3 Xrotation Yrotation Zrotation
		JOINT LeftUpLegRoll
		{
			OFFSET 0.000000 -0.000003 16.021503
			CHANNELS 3 Xrotation Yrotation Zrotation
			JOINT LeftLeg
			{
				OFFSET 0.000000 -0.000003 19.839996
				CHANNELS 3 Xrotation Yrotation Zrotation
				JOINT LeftLegRoll
				{
					OFFSET 0.000000 -0.000004 20.089005
					CHANNELS 3 Xrotation Yrotation Zrotation
					JOINT LeftFoot
					{
						OFFSET 0.000000 -0.000003 16.383499
						CHANNELS 3 Xrotation Yrotation Zrotation
						JOINT LeftToeBase
						{
							OFFSET 0.000000 -0.000002 13.849594
							CHANNELS 3 Xrotation Yrotation Zrotation
							End Site
							{
								OFFSET -0.026310 0.773116 6.707275
							}
						}
					}
				}
			}
		}
	}
}
MOTION
Frames: 9
Frame Time: 0.041667
51.633900 -32.323235 84.802658 -6.476524 -0.760794 0.717017 -1.236703 0.080504 0.029458 1.529377 0.172041 0.050984 3.174464 0.172579 0.050971 18.706199 4.511442 -1.532842 7.423482 -4.924928 -1.126408 -0.683250 -79.705985 -3.013433 -68.575195 -109.040562 -66.527941 -0.000000 0.000007 0.000000 -0.024790 3.636420 -1.990657 0.000002 0.000004 -3.011591 -5.000173 -7.999900 0.000012 -12.922741 67.873659 15.551342 -37.721885 116.490720 45.142622 0.000001 -0.000000 -0.000000 -0.029938 -3.645952 1.990646 0.000000 -0.000001 3.011600 -5.000173 7.999909 -0.000009 3.023671 -176.488892 4.949617 -179.999991 0.000005 -1.220991 173.838218 -2.927021 -0.384843 -0.000002 0.000000 0.049170 68.426037 6.927184 2.070658 25.456960 -7.355618 0.000001 2.607025 177.906170 -1.159016 -0.000005 -0.000004 -1.201480 -9.800165 2.355863 0.467931 -0.000005 0.000002 -0.153604 70.063835 -6.887073 -2.056037 25.456950 7.355613 -0.000001 
51.627201 -32.295330 84.796661 -6.459007 -0.750779 0.721100 -1.236570 0.079390 0.029457 1.529627 0.168673 0.050984 3.174704 0.169209 0.050971 18.751644 4.503630 -1.537659 7.455040 -4.925062 -1.127246 -0.741873 -79.705753 -3.075221 -68.586185 -109.071332 -66.552619 -0.000001 0.000008 0.000000 -0.024791 3.636420 -1.990658 0.000004 0.000004 -3.011590 -5.000174 -7.999901 0.000011 -12.873154 67.855211 15.494679 -37.712777 116.527685 45.163799 0.000000 -0.000000 0.000000 -0.029939 -3.645951 1.990646 0.000001 -0.000001 3.011600 -5.000173 7.999910 -0.000009 3.006909 -176.504806 4.931492 -179.999991 0.000005 -1.220991 173.861974 -2.917209 -0.383574 -0.000003 0.000000 0.049171 68.417288 6.927179 2.070706 25.456959 -7.355618 0.000000 2.559497 177.898096 -1.155576 -0.000005 -0.000005 -1.200970 -9.830098 2.349826 0.469322 -0.000005 0.000002 -0.153572 70.077208 -6.887104 -2.055913 25.456952 7.355613 0.000001 
51.638699 -32.278629 84.800964 -6.441060 -0.740390 0.725317 -1.236563 0.078237 0.029457 1.529657 0.165166 0.050984 3.174733 0.165701 0.050971 18.796489 4.495662 -1.542547 7.486013 -4.925290 -1.128192 -0.804210 -79.705405 -3.140925 -68.597530 -109.102382 -66.577617 -0.000001 0.000008 0.000000 -0.024787 3.636421 -1.990658 0.000001 0.000004 -3.011590 -5.000170 -7.999901 0.000011 -12.822205 67.836155 15.436438 -37.700742 116.566057 45.182179 0.000001 -0.000000 -0.000000 -0.029938 -3.645951 1.990646 -0.000002 -0.000002 3.011601 -5.000171 7.999910 -0.000008 2.990151 -176.521731 4.912756 -179.999991 0.000005 -1.220990 173.886644 -2.908391 -0.382358 -0.000003 0.000000 0.049170 68.408128 6.927176 2.070680 25.456959 -7.355617 0.000001 2.510787 177.889039 -1.151964 -0.000005 -0.000005 -1.200470 -9.861209 2.343349 0.470737 -0.000006 0.000002 -0.153524 70.091203 -6.887080 -2.055841 25.456953 7.355611 0.000001 
51.642300 -32.273930 84.799271 -6.422804 -0.729736 0.729626 -1.236623 0.077057 0.029457 1.529526 0.161562 0.050984 3.174603 0.162096 0.050971 18.840927 4.487585 -1.547484 7.516558 -4.925590 -1.129214 -0.869159 -79.705043 -3.209378 -68.609441 -109.133678 -66.603224 -0.000002 0.000007 0.000000 -0.024792 3.636421 -1.990657 0.000001 0.000004 -3.011589 -5.000176 -7.999899 0.000011 -12.770260 67.816655 15.377064 -37.689213 116.603419 45.201690 0.000000 0.000000 -0.000000 -0.029936 -3.645951 1.990646 -0.000000 -0.000002 3.011600 -5.000173 7.999911 -0.000008 2.973407 -176.538656 4.893640 -179.999991 0.000005 -1.221988 173.911971 -2.898585 -0.381012 -0.000003 0.000000 0.049170 68.398655 6.927186 2.070675 25.456957 -7.355617 0.000001 2.461247 177.879955 -1.148196 -0.000005 -0.000004 -1.199970 -9.893148 2.336561 0.472168 -0.000006 0.000002 -0.153466 70.105635 -6.887093 -2.055748 25.456952 7.355612 0.000001 
51.635502 -32.263630 84.799469 -6.404379 -0.718931 0.733983 -1.236731 0.075861 0.029457 1.529307 0.157904 0.050984 3.174393 0.158436 0.050971 18.885157 4.479446 -1.552446 7.546864 -4.925921 -1.130273 -0.935590 -79.704660 -3.279399 -68.621073 -109.165001 -66.628523 -0.000004 0.000007 0.000000 -0.024788 3.636420 -1.990657 0.000004 0.000004 -3.011591 -5.000176 -7.999900 0.000011 -12.717860 67.796874 15.317150 -37.676546 116.641572 45.220104 -0.000002 -0.000000 0.000000 -0.029940 -3.645950 1.990646 0.000002 -0.000002 3.011600 -5.000172 7.999909 -0.000009 2.956663 -176.556579 4.874251 -179.999991 0.000005 -1.221987 173.937666 -2.888781 -0.379654 -0.000002 0.000000 0.049171 68.389072 6.927186 2.070675 25.456957 -7.355617 0.000000 2.411240 177.870885 -1.144344 -0.000005 -0.000004 -1.199469 -9.925557 2.329592 0.473601 -0.000006 0.000002 -0.153401 70.120293 -6.887104 -2.055642 25.456948 7.355613 0.000001 
51.633598 -32.245834 84.800079 -6.385900 -0.708086 0.738347 -1.236852 0.074662 0.029458 1.529076 0.154231 0.050984 3.174151 0.154761 0.050971 18.929292 4.471293 -1.557404 7.577123 -4.926262 -1.131345 -1.002385 -79.704257 -3.349798 -68.633033 -109.196393 -66.654163 -0.000003 0.000008 0.000001 -0.024789 3.636420 -1.990658 0.000000 0.000004 -3.011590 -5.000174 -7.999899 0.000011 -12.665333 67.776985 15.257097 -37.663716 116.679671 45.238470 -0.000001 -0.000000 -0.000000 -0.029937 -3.645951 1.990646 -0.000001 -0.000001 3.011601 -5.000172 7.999909 -0.000008 2.939917 -176.574488 4.854825 -179.999991 0.000005 -1.221988 173.963456 -2.878973 -0.379313 -0.000002 0.000000 0.049170 68.379483 6.927184 2.070677 25.456964 -7.355617 0.000000 2.361118 177.861814 -1.140442 -0.000005 -0.000004 -1.198970 -9.958085 2.322574 0.475030 -0.000006 0.000002 -0.153335 70.135046 -6.887112 -2.055428 25.456952 7.355611 0.000000 
51.639500 -32.227428 84.795967 -6.367512 -0.697312 0.742678 -1.236952 0.073470 0.029457 1.528876 0.150585 0.050984 3.173960 0.151115 0.050970 18.973524 4.463157 -1.562328 7.607493 -4.926589 -1.132387 -1.068436 -79.703848 -3.419414 -68.644876 -109.227682 -66.679688 -0.000001 0.000007 0.000000 -0.024787 3.636420 -1.990658 0.000002 0.000004 -3.011590 -5.000174 -7.999901 0.000011 -12.613238 67.757259 15.197529 -37.651131 116.717811 45.256851 -0.000000 -0.000000 0.000000 -0.029939 -3.645951 1.990646 0.000000 -0.000001 3.011600 -5.000172 7.999909 -0.000008 2.923174 -176.592424 4.835508 -179.999991 0.000005 -1.221988 173.989056 -2.869164 -0.377977 -0.000002 0.000000 0.049171 68.370016 6.927187 2.070673 25.456959 -7.355617 0.000001 2.311226 177.853741 -1.136533 -0.000005 -0.000004 -1.198470 -9.990382 2.315646 0.476446 -0.000006 0.000002 -0.153272 70.149690 -6.887112 -2.055320 25.456953 7.355612 0.000001 
51.635399 -32.194431 84.795471 -6.349338 -0.686724 0.746932 -1.236991 0.072298 0.029458 1.528795 0.147010 0.050984 3.173879 0.147537 0.050971 19.018061 4.455099 -1.567202 7.638160 -4.926873 -1.133388 -1.132611 -79.703431 -3.487053 -68.656023 -109.258957 -66.704495 -0.000002 0.000008 0.000000 -0.024789 3.636421 -1.990657 0.000002 0.000004 -3.011590 -5.000173 -7.999898 0.000010 -12.561941 67.737773 15.138863 -37.638809 116.756019 45.275347 -0.000000 0.000000 0.000000 -0.029940 -3.645951 1.990646 0.000002 -0.000002 3.011600 -5.000175 7.999910 -0.000010 2.906421 -176.609363 4.816552 -179.999991 0.000005 -1.221988 174.014218 -2.859351 -0.376674 -0.000002 0.000000 0.049171 68.360652 6.927195 2.070660 25.456957 -7.355619 0.000001 2.261925 177.844684 -1.132752 -0.000005 -0.000004 -1.197970 -10.022122 2.308941 0.477841 -0.000006 0.000002 -0.153217 70.164027 -6.887131 -2.055134 25.456950 7.355612 -0.000001 
51.629101 -32.190029 84.787277 -6.331525 -0.676431 0.751067 -1.236950 0.071156 0.029458 1.528886 0.143545 0.050984 3.173969 0.144071 0.050970 19.063099 4.447143 -1.571996 7.669313 -4.927089 -1.134297 -1.193803 -79.703014 -3.551550 -68.666815 -109.289946 -66.728954 -0.000002 0.000007 0.000001 -0.024790 3.636420 -1.990658 0.000001 0.000004 -3.011590 -5.000171 -7.999899 0.000011 -12.511923 67.718778 15.081657 -37.628072 116.793544 45.295042 -0.000001 -0.000000 -0.000001 -0.029940 -3.645951 1.990646 0.000004 -0.000001 3.011599 -5.000173 7.999909 -0.000008 2.889663 -176.626274 4.798055 -179.999991 0.000005 -1.221988 174.038602 -2.849533 -0.375417 -0.000003 0.000000 0.049170 68.351581 6.927189 2.070628 25.456962 -7.355618 0.000001 2.213564 177.835627 -1.129110 -0.000005 -0.000004 -1.197460 -10.052801 2.302588 0.479201 -0.000006 0.000002 -0.153174 70.177824 -6.887135 -2.055079 25.456952 7.355613 0.000000 
